<svg width="986" height="681" viewBox="0 0 986 681" fill="none" xmlns="http://www.w3.org/2000/svg">
<path opacity="0.1" d="M144.55 680.31C212.238 680.31 267.11 666.435 267.11 649.32C267.11 632.205 212.238 618.33 144.55 618.33C76.862 618.33 21.99 632.205 21.99 649.32C21.99 666.435 76.862 680.31 144.55 680.31Z" fill="#467AC7"/>
<path d="M977.37 14.99H8.63003C7.49457 14.9913 6.3705 15.2164 5.32209 15.6525C4.27369 16.0885 3.32151 16.7269 2.52001 17.5312C1.71851 18.3355 1.0834 19.2899 0.651004 20.3398C0.218606 21.3897 -0.00260328 22.5145 2.58643e-05 23.65V616.53C-0.00391718 618.819 0.44302 621.086 1.31532 623.202C2.18762 625.319 3.46819 627.242 5.08393 628.864C6.69967 630.485 8.61894 631.772 10.7321 632.652C12.8453 633.531 15.1111 633.986 17.4 633.99H968.6C970.889 633.986 973.155 633.531 975.268 632.652C977.381 631.772 979.3 630.485 980.916 628.864C982.532 627.242 983.812 625.319 984.685 623.202C985.557 621.086 986.004 618.819 986 616.53V23.65C986.003 21.3576 985.095 19.1579 983.477 17.5341C981.859 15.9103 979.662 14.9953 977.37 14.99V14.99Z" fill="url(#paint0_linear)"/>
<path d="M982.08 51.79V613.04C982.08 617.616 980.263 622.005 977.028 625.241C973.794 628.478 969.406 630.297 964.83 630.3H21.34C16.7624 630.3 12.3722 628.482 9.13535 625.245C5.89848 622.008 4.08002 617.618 4.08002 613.04V51.79H982.08Z" fill="white"/>
<path d="M133 44.99V630.3H21.34C16.7624 630.3 12.3722 628.482 9.13535 625.245C5.89848 622.008 4.08002 617.618 4.08002 613.04V45.04L133 44.99Z" fill="#D7D9E1"/>
<path d="M982.08 26.8601V51.7901H4.08002V26.8601C4.08002 24.5898 4.98187 22.4125 6.58718 20.8072C8.19249 19.2019 10.3698 18.3 12.64 18.3H973.52C975.79 18.3 977.968 19.2019 979.573 20.8072C981.178 22.4125 982.08 24.5898 982.08 26.8601Z" fill="#EDEDF4"/>
<path opacity="0.8" d="M19.58 38.8C21.7892 38.8 23.58 37.0092 23.58 34.8C23.58 32.5909 21.7892 30.8 19.58 30.8C17.3709 30.8 15.58 32.5909 15.58 34.8C15.58 37.0092 17.3709 38.8 19.58 38.8Z" fill="#FA5959"/>
<path opacity="0.8" d="M30.58 38.8C32.7892 38.8 34.58 37.0092 34.58 34.8C34.58 32.5909 32.7892 30.8 30.58 30.8C28.3709 30.8 26.58 32.5909 26.58 34.8C26.58 37.0092 28.3709 38.8 30.58 38.8Z" fill="#FED253"/>
<path opacity="0.8" d="M41.58 38.8C43.7892 38.8 45.58 37.0092 45.58 34.8C45.58 32.5909 43.7892 30.8 41.58 30.8C39.3709 30.8 37.58 32.5909 37.58 34.8C37.58 37.0092 39.3709 38.8 41.58 38.8Z" fill="#8CCF4D"/>
<path d="M111 100.99H17V110.99H111V100.99Z" fill="#EDEDF4"/>
<path d="M111 129.99H17V139.99H111V129.99Z" fill="#EDEDF4"/>
<path d="M111 158.99H17V168.99H111V158.99Z" fill="#EDEDF4"/>
<path d="M111 187.99H17V197.99H111V187.99Z" fill="#EDEDF4"/>
<path d="M111 216.99H17V226.99H111V216.99Z" fill="#EDEDF4"/>
<path d="M550 4V0L544 0V4H550Z" fill="url(#paint1_linear)"/>
<path opacity="0.1" d="M831.83 118.31H279.83V462.31H831.83V118.31Z" fill="#467AC7"/>
<path d="M793.83 144.57H236.83V496.05H793.83V144.57Z" fill="#D7D9E1"/>
<path d="M791.83 148.31H239.83V492.31H791.83V148.31Z" fill="white"/>
<path opacity="0.1" d="M553.83 194.3H501.83C499.63 194.3 497.83 195.6 497.83 197.18V200.05C497.856 200.499 497.997 200.934 498.241 201.313C498.484 201.691 498.822 202 499.22 202.21H487.83C485.63 202.21 483.83 203.5 483.83 205.09V207.96C483.83 209.54 485.63 210.84 487.83 210.84H488.97C488.884 211.067 488.837 211.307 488.83 211.55V214.43C488.83 216.01 490.63 217.3 492.83 217.3H544.83C547.03 217.3 548.83 216.01 548.83 214.43V211.55C548.83 209.97 547.03 208.68 544.83 208.68H543.69C543.777 208.45 543.824 208.206 543.83 207.96V205.09C543.804 204.641 543.663 204.206 543.419 203.827C543.176 203.449 542.838 203.14 542.44 202.93H553.83C556.03 202.93 557.83 201.64 557.83 200.05V197.18C557.83 195.6 556.03 194.3 553.83 194.3Z" fill="#467AC7"/>
<path opacity="0.1" d="M479.83 255.3H427.83C425.63 255.3 423.83 256.6 423.83 258.18V261.05C423.856 261.499 423.997 261.934 424.241 262.313C424.484 262.691 424.822 263 425.22 263.21H413.83C411.63 263.21 409.83 264.5 409.83 266.09V268.96C409.83 270.54 411.63 271.84 413.83 271.84H414.97C414.884 272.067 414.837 272.307 414.83 272.55V275.43C414.83 277.01 416.63 278.3 418.83 278.3H470.83C473.03 278.3 474.83 277.01 474.83 275.43V272.55C474.83 270.97 473.03 269.68 470.83 269.68H469.69C469.777 269.45 469.824 269.206 469.83 268.96V266.09C469.804 265.641 469.663 265.206 469.419 264.827C469.176 264.449 468.838 264.14 468.44 263.93H479.83C482.03 263.93 483.83 262.64 483.83 261.05V258.18C483.83 256.6 482.03 255.3 479.83 255.3Z" fill="#467AC7"/>
<path opacity="0.1" d="M604.83 266.3H552.83C550.63 266.3 548.83 267.6 548.83 269.18V272.05C548.856 272.499 548.997 272.934 549.241 273.313C549.484 273.691 549.822 274 550.22 274.21H538.83C536.63 274.21 534.83 275.5 534.83 277.09V279.96C534.83 281.54 536.63 282.84 538.83 282.84H539.97C539.884 283.067 539.837 283.307 539.83 283.55V286.43C539.83 288.01 541.63 289.3 543.83 289.3H595.83C598.03 289.3 599.83 288.01 599.83 286.43V283.55C599.83 281.97 598.03 280.68 595.83 280.68H594.69C594.777 280.45 594.824 280.206 594.83 279.96V277.09C594.804 276.641 594.663 276.206 594.419 275.827C594.176 275.449 593.838 275.14 593.44 274.93H604.83C607.03 274.93 608.83 273.64 608.83 272.05V269.18C608.83 267.6 607.03 266.3 604.83 266.3Z" fill="#467AC7"/>
<path opacity="0.1" d="M506.343 277.127C507.964 274.919 506.369 270.994 502.781 268.36C499.192 265.726 494.969 265.38 493.348 267.589C491.727 269.797 493.322 273.722 496.911 276.357C500.499 278.991 504.722 279.336 506.343 277.127Z" fill="#467AC7"/>
<path opacity="0.1" d="M486.35 173.12C487.971 170.912 486.376 166.986 482.788 164.352C479.2 161.718 474.977 161.373 473.356 163.581C471.735 165.789 473.33 169.715 476.918 172.349C480.506 174.983 484.73 175.328 486.35 173.12Z" fill="#467AC7"/>
<path opacity="0.1" d="M552.348 242.135C553.969 239.926 552.374 236.001 548.786 233.367C545.197 230.733 540.974 230.388 539.353 232.596C537.732 234.804 539.327 238.73 542.916 241.364C546.504 243.998 550.727 244.343 552.348 242.135Z" fill="#467AC7"/>
<g opacity="0.7">
<path opacity="0.7" d="M365.32 492.3H351.32C353.529 491.341 355.912 490.845 358.32 490.845C360.728 490.845 363.111 491.341 365.32 492.3V492.3Z" fill="#3F3D56"/>
<path opacity="0.7" d="M380.83 484.3C380.837 486.99 380.552 489.672 379.98 492.3H336.68C335.212 485.476 335.655 478.379 337.96 471.79C338.638 469.887 339.496 468.052 340.52 466.31C344.63 459.31 351.08 454.86 358.33 454.86C365.58 454.86 372.03 459.34 376.14 466.31C377.134 468 377.971 469.777 378.64 471.62C380.103 475.687 380.844 479.978 380.83 484.3V484.3Z" fill="#3F3D56"/>
<path opacity="0.7" d="M358.33 477.76C370.756 477.76 380.83 464.575 380.83 448.31C380.83 432.045 370.756 418.86 358.33 418.86C345.904 418.86 335.83 432.045 335.83 448.31C335.83 464.575 345.904 477.76 358.33 477.76Z" fill="#3F3D56"/>
<path opacity="0.7" d="M358.33 441.76C370.756 441.76 380.83 428.575 380.83 412.31C380.83 396.045 370.756 382.86 358.33 382.86C345.904 382.86 335.83 396.045 335.83 412.31C335.83 428.575 345.904 441.76 358.33 441.76Z" fill="#3F3D56"/>
<path opacity="0.7" d="M442.56 299.21C453.964 313.714 461.455 330.903 464.315 349.131C467.175 367.359 465.308 386.016 458.894 403.316C452.48 420.616 441.732 435.98 427.681 447.938C413.629 459.895 396.743 468.046 378.64 471.61C376.05 472.12 373.43 472.54 370.78 472.84C362.566 473.835 354.264 473.878 346.04 472.97C343.313 472.683 340.62 472.287 337.96 471.78C319.748 468.361 302.725 460.304 288.535 448.387C274.345 436.47 263.467 421.096 256.951 403.749C250.436 386.403 248.502 367.669 251.338 349.357C254.174 331.045 261.683 313.774 273.14 299.21C262.055 285.116 254.66 268.48 251.625 250.807C248.591 233.135 250.012 214.985 255.76 198L337.59 225.47L260.83 185.6C264.209 178.624 268.329 172.033 273.12 165.94C268.792 160.441 265.011 154.533 261.83 148.3H418.61L450.94 153.61C448.431 157.906 445.631 162.026 442.56 165.94C457.531 184.923 465.657 208.404 465.62 232.58C465.62 232.85 465.62 233.13 465.62 233.4C465.592 238.034 465.257 242.66 464.62 247.25C464.26 249.97 463.793 252.653 463.22 255.3C461.516 263.235 458.916 270.952 455.47 278.3C455.26 278.76 455.04 279.21 454.82 279.66C452.561 284.303 449.971 288.778 447.07 293.05C445.69 295.05 444.25 297.05 442.73 298.98L442.56 299.21Z" fill="#467AC7"/>
<path opacity="0.1" d="M250.07 232.58C250.032 256.758 258.162 280.24 273.14 299.22C260.637 315.117 252.86 334.211 250.698 354.319C248.535 374.427 252.075 394.738 260.911 412.93C269.748 431.122 283.525 446.46 300.667 457.191C317.81 467.922 337.626 473.613 357.85 473.613C378.074 473.613 397.89 467.922 415.033 457.191C432.175 446.46 445.952 431.122 454.789 412.93C463.625 394.738 467.165 374.427 465.002 354.319C462.84 334.211 455.062 315.117 442.56 299.22C457 280.88 250.07 220.48 250.07 232.58Z" fill="black"/>
<path opacity="0.7" d="M690.13 492.3H650.53C651.1 490.92 651.768 489.584 652.53 488.3C656.64 481.3 663.09 476.85 670.34 476.85C677.59 476.85 684.04 481.33 688.15 488.3C688.905 489.584 689.567 490.921 690.13 492.3V492.3Z" fill="#3F3D56"/>
<path opacity="0.7" d="M692.83 470.3C692.893 476.61 691.275 482.823 688.14 488.3C687.31 489.715 686.356 491.054 685.29 492.3H655.37C654.304 491.054 653.35 489.715 652.52 488.3C649.386 482.823 647.767 476.61 647.83 470.3C647.83 454.03 657.9 440.85 670.33 440.85C682.76 440.85 692.83 454.03 692.83 470.3Z" fill="#3F3D56"/>
<path opacity="0.7" d="M754.73 356.98L754.56 357.21C769.531 376.193 777.657 399.674 777.62 423.85C777.62 425.56 777.62 427.27 777.5 428.96C777.5 429.44 777.5 429.96 777.42 430.41L777.36 431.41C777.36 432 777.27 432.6 777.21 433.19C777.15 433.78 777.11 434.47 777.03 435.1C776.95 435.73 776.87 436.65 776.77 437.42V437.67C776.7 438.24 776.62 438.81 776.53 439.37C776.53 439.77 776.42 440.17 776.36 440.56C776.12 442.12 775.84 443.67 775.53 445.2C775.45 445.64 775.35 446.08 775.25 446.52C775.15 446.96 775.07 447.42 774.96 447.87C774.85 448.32 774.72 448.87 774.59 449.41C774.561 449.576 774.521 449.739 774.47 449.9C774.34 450.45 774.2 450.99 774.06 451.53C773.92 452.07 773.84 452.36 773.71 452.78C773.55 453.4 773.37 454.02 773.18 454.64C772.99 455.26 772.81 455.86 772.62 456.47C771.953 458.683 771.187 460.857 770.32 462.99C770.04 463.7 769.76 464.4 769.47 465.1C769.25 465.64 769.02 466.17 768.79 466.69C768.66 466.99 768.53 467.29 768.39 467.59C768.25 467.89 768.07 468.32 767.9 468.68C767.73 469.04 767.47 469.68 767.24 470.09C766.93 470.75 766.61 471.41 766.24 472.09C766.05 472.47 765.86 472.85 765.66 473.23C764.24 475.997 762.697 478.693 761.03 481.32C760.64 481.94 760.24 482.56 759.83 483.17C759.417 483.803 758.997 484.423 758.57 485.03L757.36 486.79C756.027 488.683 754.603 490.53 753.09 492.33H586.6C585.11 490.52 583.67 488.66 582.3 486.75L581.51 485.64C581.24 485.25 580.96 484.86 580.7 484.46L580.29 483.85C579.95 483.35 579.62 482.85 579.29 482.34L578.93 481.78C578.56 481.2 578.19 480.61 577.83 480.01C576.48 477.81 575.22 475.56 574.03 473.26C573.83 472.88 573.63 472.5 573.45 472.12C573.12 471.47 572.8 470.81 572.45 470.12C572.217 469.66 571.997 469.19 571.79 468.71C571.62 468.35 571.45 467.99 571.3 467.62C571.15 467.25 571.03 467.02 570.9 466.72C570.67 466.2 570.44 465.72 570.22 465.13C569.93 464.43 569.65 463.73 569.37 463.02C568.53 460.88 567.77 458.71 567.07 456.5C566.88 455.89 566.69 455.28 566.51 454.67C566.33 454.06 566.14 453.43 565.98 452.81C565.85 452.39 565.74 451.98 565.63 451.56C565.52 451.14 565.35 450.48 565.22 449.93C565.169 449.769 565.129 449.606 565.1 449.44C564.97 448.93 564.85 448.44 564.73 447.9C564.61 447.36 564.53 447 564.44 446.55C564.35 446.1 564.24 445.67 564.16 445.23C563.85 443.7 563.57 442.15 563.33 440.59C563.27 440.2 563.21 439.8 563.16 439.4C563.07 438.84 562.99 438.27 562.92 437.7V437.45C562.82 436.68 562.73 435.9 562.66 435.13C562.59 434.36 562.52 433.86 562.48 433.22C562.44 432.58 562.37 432.03 562.33 431.44L562.27 430.44C562.27 429.96 562.21 429.44 562.19 428.99C562.11 427.3 562.07 425.59 562.07 423.88C562.032 399.702 570.162 376.22 585.14 357.24C584.56 356.51 584 355.77 583.44 355.02L583.07 354.52C582.637 353.947 582.217 353.367 581.81 352.78L581.42 352.23C580.94 351.54 580.42 350.84 580 350.14C579.928 350.041 579.861 349.937 579.8 349.83C579.31 349.09 578.8 348.35 578.36 347.59L578.06 347.12C577.62 346.39 577.17 345.66 576.74 344.92L576.52 344.54C576.07 343.76 575.63 342.98 575.2 342.19L575.05 341.91C574.66 341.2 574.29 340.49 573.92 339.77C573 337.98 572.12 336.16 571.31 334.31C570.83 333.23 570.31 332.15 569.92 331.05L569.76 330.65C569.48 329.96 569.21 329.27 568.95 328.57C568.69 327.87 568.44 327.18 568.19 326.48C567.94 325.78 567.7 325.07 567.47 324.37C567.09 323.21 566.73 322.05 566.38 320.87C566.29 320.57 566.2 320.26 566.12 319.96C565.93 319.28 565.74 318.6 565.56 317.91C565.38 317.19 565.2 316.47 565.03 315.75C564.86 315.03 564.72 314.44 564.57 313.75L564.48 313.33C564.32 312.583 564.17 311.833 564.03 311.08C563.92 310.51 563.81 309.94 563.72 309.36C563.681 309.198 563.651 309.035 563.63 308.87C563.52 308.28 563.43 307.69 563.34 307.1C563.22 306.34 563.11 305.58 563.01 304.82C562.9 303.96 562.79 303.1 562.7 302.24C562.7 302.11 562.7 301.97 562.7 301.84C562.62 301.05 562.54 300.25 562.49 299.46C562.44 298.67 562.37 298.04 562.33 297.33C562.33 296.8 562.26 296.26 562.24 295.72C562.22 295.18 562.24 294.84 562.19 294.4C562.14 293.96 562.19 293.54 562.19 293.1C562.19 292.267 562.19 291.437 562.19 290.61V290.33C562.214 278.664 564.136 267.079 567.88 256.03L649.71 283.5L572.83 243.6C576.209 236.624 580.329 230.033 585.12 223.94C580.345 217.887 576.238 211.335 572.87 204.4C570.619 199.792 568.707 195.026 567.15 190.14C563.761 179.527 562.041 168.451 562.05 157.31C562.05 154.31 562.18 151.31 562.43 148.31H701.96L684.03 161.48L709.44 148.3H777.24C777.5 151.3 777.62 154.3 777.62 157.3C777.637 172.857 774.273 188.232 767.76 202.36L703.83 201.9L762.95 211.61C760.441 215.906 757.641 220.026 754.57 223.94C769.469 242.896 777.582 266.3 777.613 290.411C777.644 314.521 769.59 337.946 754.74 356.94L754.73 356.98Z" fill="#467AC7"/>
<path opacity="0.1" d="M777.62 423.85C777.62 425.56 777.62 427.27 777.5 428.96C777.5 429.44 777.5 429.96 777.42 430.41L777.36 431.41C777.36 432 777.27 432.6 777.21 433.19C777.15 433.78 777.11 434.47 777.03 435.1C776.95 435.73 776.87 436.65 776.77 437.42V437.67C776.7 438.24 776.62 438.81 776.53 439.37C776.53 439.77 776.42 440.17 776.36 440.56C776.12 442.12 775.84 443.67 775.53 445.2C775.45 445.64 775.35 446.08 775.25 446.52C775.15 446.96 775.07 447.42 774.96 447.87C774.85 448.32 774.72 448.87 774.59 449.41C774.561 449.576 774.521 449.739 774.47 449.9C774.34 450.45 774.2 450.99 774.06 451.53C773.92 452.07 773.84 452.36 773.71 452.78C773.55 453.4 773.37 454.02 773.18 454.64C772.99 455.26 772.81 455.86 772.62 456.47C771.953 458.683 771.187 460.857 770.32 462.99C770.04 463.7 769.76 464.4 769.47 465.1C769.25 465.64 769.02 466.17 768.79 466.69C768.66 466.99 768.53 467.29 768.39 467.59C768.25 467.89 768.07 468.32 767.9 468.68C767.73 469.04 767.47 469.68 767.24 470.09C766.93 470.75 766.61 471.41 766.24 472.09C766.05 472.47 765.86 472.85 765.66 473.23C764.24 475.997 762.697 478.693 761.03 481.32C760.64 481.94 760.24 482.56 759.83 483.17C759.417 483.803 758.997 484.423 758.57 485.03L757.36 486.79C756.027 488.683 754.603 490.53 753.09 492.33H586.6C585.11 490.52 583.67 488.66 582.3 486.75L581.51 485.64C581.24 485.25 580.96 484.86 580.7 484.46L580.29 483.85C579.95 483.35 579.62 482.85 579.29 482.34L578.93 481.78C578.56 481.2 578.19 480.61 577.83 480.01C576.48 477.81 575.22 475.56 574.03 473.26C573.83 472.88 573.63 472.5 573.45 472.12C573.12 471.47 572.8 470.81 572.45 470.12C572.217 469.66 571.997 469.19 571.79 468.71C571.62 468.35 571.45 467.99 571.3 467.62C571.15 467.25 571.03 467.02 570.9 466.72C570.67 466.2 570.44 465.72 570.22 465.13C569.93 464.43 569.65 463.73 569.37 463.02C568.53 460.88 567.77 458.71 567.07 456.5C566.88 455.89 566.69 455.28 566.51 454.67C566.33 454.06 566.14 453.43 565.98 452.81C565.85 452.39 565.74 451.98 565.63 451.56C565.52 451.14 565.35 450.48 565.22 449.93C565.169 449.769 565.129 449.606 565.1 449.44C564.97 448.93 564.85 448.44 564.73 447.9C564.61 447.36 564.53 447 564.44 446.55C564.35 446.1 564.24 445.67 564.16 445.23C563.85 443.7 563.57 442.15 563.33 440.59C563.27 440.2 563.21 439.8 563.16 439.4C563.07 438.84 562.99 438.27 562.92 437.7V437.45C562.82 436.68 562.73 435.9 562.66 435.13C562.59 434.36 562.52 433.86 562.48 433.22C562.44 432.58 562.37 432.03 562.33 431.44L562.27 430.44C562.27 429.96 562.21 429.44 562.19 428.99C562.11 427.3 562.07 425.59 562.07 423.88C562.032 399.702 570.162 376.22 585.14 357.24C584.56 356.51 584 355.77 583.44 355.02L583.07 354.52C582.637 353.947 582.217 353.367 581.81 352.78L581.42 352.23C580.94 351.54 580.42 350.84 580 350.14C579.928 350.041 579.861 349.937 579.8 349.83C579.31 349.09 578.8 348.35 578.36 347.59L578.06 347.12C577.62 346.39 577.17 345.66 576.74 344.92L576.52 344.54C576.07 343.76 575.63 342.98 575.2 342.19L575.05 341.91C574.66 341.2 574.29 340.49 573.92 339.77C573 337.98 572.12 336.16 571.31 334.31C570.83 333.23 570.31 332.15 569.92 331.05L569.76 330.65C569.48 329.96 569.21 329.27 568.95 328.57C568.69 327.87 568.44 327.18 568.19 326.48C567.94 325.78 567.7 325.07 567.47 324.37C567.09 323.21 566.73 322.05 566.38 320.87C566.29 320.57 566.2 320.26 566.12 319.96C565.93 319.28 565.74 318.6 565.56 317.91C565.38 317.19 565.2 316.47 565.03 315.75C564.86 315.03 564.72 314.44 564.57 313.75L564.48 313.33C564.32 312.583 564.17 311.833 564.03 311.08C563.92 310.51 563.81 309.94 563.72 309.36C563.681 309.198 563.651 309.035 563.63 308.87C563.52 308.28 563.43 307.69 563.34 307.1C563.22 306.34 563.11 305.58 563.01 304.82C562.9 303.96 562.79 303.1 562.7 302.24C562.7 302.11 562.7 301.97 562.7 301.84C562.62 301.05 562.54 300.25 562.49 299.46C562.44 298.67 562.37 298.04 562.33 297.33C562.33 296.8 562.26 296.26 562.24 295.72C562.22 295.18 562.24 294.84 562.19 294.4C562.14 293.96 562.19 293.54 562.19 293.1C562.19 292.267 562.19 291.437 562.19 290.61C562.17 290.518 562.17 290.422 562.19 290.33C562.74 288.5 569.02 288.68 579 290.33C586.93 291.64 597.18 293.88 608.77 296.78C668.51 311.72 763.43 344.17 754.77 357.01L754.6 357.24C769.551 376.22 777.661 399.689 777.62 423.85V423.85Z" fill="black"/>
<path opacity="0.7" d="M478.488 242.965C483.565 237.888 485.148 231.24 482.024 228.116C478.9 224.992 472.252 226.575 467.175 231.651C462.098 236.728 460.515 243.376 463.639 246.501C466.763 249.625 473.412 248.042 478.488 242.965Z" fill="#467AC7"/>
<path opacity="0.7" d="M571.486 205.961C576.563 200.884 578.146 194.236 575.022 191.112C571.898 187.988 565.249 189.571 560.173 194.647C555.096 199.724 553.513 206.373 556.637 209.497C559.761 212.621 566.41 211.038 571.486 205.961Z" fill="#467AC7"/>
<path opacity="0.7" d="M783.482 271.964C788.559 266.887 790.142 260.239 787.018 257.114C783.893 253.99 777.245 255.573 772.168 260.65C767.092 265.727 765.509 272.375 768.633 275.499C771.757 278.623 778.405 277.04 783.482 271.964Z" fill="#467AC7"/>
<path opacity="0.7" d="M464.324 296.05C466.938 292.489 464.366 286.157 458.578 281.909C452.79 277.66 445.979 277.104 443.364 280.665C440.75 284.227 443.323 290.559 449.11 294.807C454.898 299.055 461.71 299.612 464.324 296.05Z" fill="#467AC7"/>
<path opacity="0.7" d="M578.83 486.06C578.59 485.563 578.39 485.048 578.23 484.52C578.091 483.292 578.121 482.05 578.32 480.83V480.79C578.313 479.916 578.216 479.044 578.03 478.19C577.43 474.91 576.84 471.62 576.25 468.34C575.97 466.82 575.7 465.34 575.57 463.78C575.44 462.22 575.45 460.63 575.43 459.06C575.35 453.96 574.43 448.89 574.25 443.8C574.15 441.15 573.94 438.5 573.73 435.86C573.36 431.31 572.96 426.77 572.16 422.28C571.53 418.72 569.74 415.4 569.71 411.78L569.65 406.15C569.758 404.54 569.501 402.927 568.9 401.43C568.197 400.194 567.251 399.112 566.12 398.25L565.28 397.54C562.613 395.247 559.85 393.057 556.99 390.97C556.73 390.76 556.47 390.57 556.21 390.38C557.248 390.582 558.321 390.506 559.32 390.16C559.676 389.998 559.984 389.748 560.215 389.433C560.446 389.117 560.593 388.748 560.64 388.36C560.671 388.096 560.626 387.829 560.51 387.59C560.146 387.026 559.581 386.622 558.93 386.46C557.77 386.113 556.57 385.914 555.36 385.87H555.15C555.269 385.382 555.363 384.888 555.43 384.39C555.598 382.943 555.572 381.48 555.35 380.04C555.356 379.947 555.356 379.853 555.35 379.76C555.01 377.46 554.35 375.18 553.94 372.88C553.89 372.59 553.85 372.3 553.81 372.01C553.624 370.933 553.527 369.843 553.52 368.75C553.52 363.32 556.28 358.33 557.87 353.14C559.131 349.01 559.669 344.693 559.46 340.38C559.46 340.06 559.46 339.74 559.39 339.38C559.115 335.479 558.228 331.645 556.76 328.02C555.04 323.79 552.54 319.83 551.7 315.35C551.64 315.02 551.59 314.71 551.54 314.35C551.54 314.29 551.54 314.24 551.54 314.18C551.21 311.6 551.33 308.98 551.1 306.39V306.17C551.1 305.67 551 305.17 550.91 304.66C549.4 295.71 541.42 288.82 532.65 286.45C525.88 284.61 518.99 285.19 512.19 286.45C506.33 287.54 500.99 285.15 495.19 285.91C492.9 286.21 490.51 286.96 489.04 288.74C488.284 289.842 487.599 290.991 486.99 292.18C484.38 296.26 479.2 297.62 474.91 299.85C468.38 303.23 463.17 309.55 462.2 316.85C461.29 323.6 463.95 330.3 464.35 337.1C464.499 339.924 464.321 342.757 463.82 345.54C462.82 351.27 460.82 356.91 459.05 362.48C458.174 364.752 457.724 367.165 457.72 369.6C457.873 371.255 458.243 372.882 458.82 374.44C459.66 377 460.61 379.53 461.7 382C459.677 382.822 457.556 383.377 455.39 383.65C453.17 383.9 450.82 383.81 448.9 384.94C448.01 385.498 447.242 386.229 446.64 387.09C445.724 388.367 445.072 389.813 444.72 391.344C444.368 392.876 444.324 394.462 444.59 396.01C444.191 396.262 443.864 396.613 443.64 397.028C443.416 397.443 443.302 397.908 443.31 398.38C443.31 399.32 443.47 400.26 443.51 401.2C443.44 402.98 443.103 404.74 442.51 406.42C440.935 412.182 440.544 418.203 441.36 424.12C441.76 427.06 442.07 429.98 442.3 432.91C442.83 439.44 443.04 445.96 443.3 452.56C443.58 458.82 443.06 465.15 444.1 471.34C444.45 473.41 445.1 475.6 446.72 476.9C447.11 477.171 447.481 477.468 447.83 477.79C448.75 478.79 448.78 480.21 449.08 481.5C449.567 483.278 450.653 484.833 452.154 485.903C453.656 486.973 455.48 487.491 457.32 487.37L455.64 492.22H559.31C559.2 491.277 559.2 490.324 559.31 489.38V489.44C559.834 490.271 560.102 491.238 560.08 492.22H579.83C579.919 490.12 579.578 488.024 578.83 486.06Z" fill="url(#paint2_linear)"/>
<path opacity="0.7" d="M495.61 287.13C493.33 287.43 490.96 288.13 489.5 289.94C488.764 291.038 488.096 292.18 487.5 293.36C484.92 297.41 479.78 298.76 475.5 300.97C469.02 304.33 463.85 310.62 462.88 317.86C461.99 324.57 464.62 331.22 465.02 337.98C465.54 346.6 462.41 354.98 459.76 363.19C458.889 365.445 458.441 367.842 458.44 370.26C458.589 371.908 458.955 373.529 459.53 375.08C461.96 382.45 465.26 389.63 470.17 395.65C475.08 401.67 481.71 406.47 489.27 408.25C492.736 408.959 496.262 409.334 499.8 409.37C505.213 409.57 510.627 409.667 516.04 409.66C519.015 409.744 521.992 409.547 524.93 409.07C531.12 407.87 536.59 404.36 541.88 400.92C547.97 396.92 554.66 392.11 555.58 384.92C556.24 379.72 553.64 374.62 553.64 369.38C553.64 363.99 556.38 359.03 557.96 353.87C560.449 345.681 560.06 336.888 556.86 328.95C555.15 324.76 552.67 320.82 551.86 316.37C551.21 312.88 551.61 309.27 551.03 305.78C549.54 296.88 541.61 290.04 532.9 287.68C526.18 285.86 519.35 286.43 512.59 287.68C506.72 288.79 501.41 286.37 495.61 287.13Z" fill="#3F3D56"/>
<path opacity="0.7" d="M497.45 361.67C498.75 367.323 497.765 373.26 494.71 378.19C493.093 380.533 491.111 382.603 488.84 384.32C485.39 387.124 481.469 389.291 477.26 390.72C479.886 392.784 482.924 394.261 486.17 395.05C488.667 395.587 491.207 395.895 493.76 395.97C506.582 396.653 519.44 396.187 532.18 394.58C536.44 394.04 540.88 393.3 544.32 390.74C544.626 390.552 544.864 390.272 545 389.94C545.25 389.09 544.24 388.45 543.41 388.17C539.3 386.77 534.88 385.96 531.33 383.46C525.89 379.65 523.62 372.64 523.13 366.01C522.64 359.38 523.6 352.7 522.95 346.08C514.17 345.953 505.393 346.21 496.62 346.85C495.62 346.92 491.21 346.67 490.69 347.52C490.17 348.37 492.56 350.8 493.16 351.72C495.197 354.741 496.652 358.115 497.45 361.67Z" fill="#FBBEBE"/>
<path opacity="0.1" d="M509.61 361.88C526.178 361.88 539.61 348.449 539.61 331.88C539.61 315.312 526.178 301.88 509.61 301.88C493.041 301.88 479.61 315.312 479.61 331.88C479.61 348.449 493.041 361.88 509.61 361.88Z" fill="black"/>
<path opacity="0.7" d="M509.61 360.82C526.178 360.82 539.61 347.389 539.61 330.82C539.61 314.252 526.178 300.82 509.61 300.82C493.041 300.82 479.61 314.252 479.61 330.82C479.61 347.389 493.041 360.82 509.61 360.82Z" fill="#FBBEBE"/>
<path opacity="0.7" d="M551.72 441.24C549.27 451.24 547.72 461.68 548.77 471.97C549.43 478.51 551.66 485.61 551.94 492.3H477.6C477.6 488.82 477.6 485.23 477.54 481.64C477.54 480.93 477.54 480.23 477.54 479.51C477.54 478.59 477.54 477.67 477.54 476.74C477.54 473.94 477.54 471.17 477.54 468.47C477.54 463.6 477.54 458.73 477.03 453.89C476.086 445.272 474.087 436.802 471.08 428.67C470.87 428.07 470.66 427.47 470.44 426.88C470.412 426.819 470.389 426.755 470.37 426.69C470.14 426.09 469.92 425.49 469.69 424.88C466.07 415.27 461.94 405.28 463.92 395.28C464.339 393.254 465.011 391.289 465.92 389.43C467.567 385.983 469.958 382.943 472.92 380.53L473.21 380.29C474.239 379.487 475.329 378.765 476.47 378.13C477.051 377.804 477.649 377.507 478.26 377.24L478.49 377.14C479.873 376.531 481.36 376.192 482.87 376.14C486.64 376.08 490.03 378.23 493.18 380.33L493.43 380.5L493.85 380.77L494.33 381.09C495.57 381.91 496.83 382.73 498.1 383.51L498.71 383.88C502.242 386.124 506.042 387.914 510.02 389.21C516.02 391.03 522.8 391.1 528.29 388.07C529.352 387.467 530.356 386.768 531.29 385.98C531.879 385.499 532.443 384.989 532.98 384.45C534.168 383.275 535.28 382.026 536.31 380.71C537.76 383.55 540.93 384.71 543.56 386.55C546.427 388.617 548.734 391.367 550.27 394.55C550.71 395.41 551.1 396.29 551.45 397.18C552.955 401.405 553.962 405.792 554.45 410.25C555.179 414.62 555.47 419.052 555.32 423.48C554.92 429.5 553.16 435.36 551.72 441.24Z" fill="#3F3D56"/>
<path opacity="0.7" d="M482.981 383.754L493.813 381.193C495.371 380.825 496.336 379.263 495.968 377.704L485.491 333.385C485.123 331.827 483.561 330.862 482.002 331.23L471.171 333.791C469.612 334.159 468.647 335.721 469.015 337.28L479.492 381.599C479.86 383.157 481.423 384.122 482.981 383.754Z" fill="#467AC7"/>
<path opacity="0.7" d="M482.746 383.819L492.351 381.548C493.909 381.18 494.874 379.617 494.506 378.059L484.029 333.74C483.661 332.181 482.099 331.217 480.54 331.585L470.935 333.856C469.376 334.224 468.411 335.786 468.78 337.345L479.256 381.663C479.625 383.222 481.187 384.187 482.746 383.819Z" fill="#EDEDF4"/>
<path opacity="0.7" d="M478.084 347.138C478.89 346.948 479.169 345.207 478.706 343.251C478.244 341.294 477.215 339.863 476.409 340.053C475.603 340.244 475.324 341.984 475.787 343.941C476.249 345.897 477.277 347.329 478.084 347.138Z" fill="#467AC7"/>
<path opacity="0.7" d="M507.14 492.3H456.43L458.15 487.3H458.09C456.263 487.422 454.45 486.908 452.959 485.845C451.468 484.783 450.391 483.237 449.91 481.47C449.61 480.19 449.58 478.73 448.67 477.78C448.304 477.45 447.913 477.149 447.5 476.88C445.86 475.59 445.25 473.41 444.91 471.35C443.91 465.2 444.39 458.92 444.12 452.69C443.82 445.69 443.6 438.82 442.99 431.91C442.77 429.42 442.5 426.91 442.16 424.43C441.355 418.549 441.746 412.566 443.31 406.84C443.903 405.174 444.24 403.427 444.31 401.66C444.31 400.72 444.06 399.79 444.11 398.86C444.103 398.391 444.216 397.928 444.438 397.515C444.66 397.102 444.985 396.753 445.38 396.5C445.111 394.965 445.149 393.391 445.493 391.87C445.836 390.349 446.477 388.911 447.38 387.64C447.975 386.783 448.737 386.055 449.62 385.5C451.52 384.38 453.87 384.5 456.06 384.22C458.21 383.952 460.315 383.4 462.32 382.58C463.03 382.3 463.72 382 464.42 381.68C466.86 380.56 469.24 379.2 471.63 377.91L472.13 377.64C473.93 376.64 475.74 375.75 477.59 374.98L477.82 374.89C480.003 373.961 482.311 373.358 484.67 373.1C486.98 372.947 489.3 373.004 491.6 373.27C492.249 373.321 492.879 373.52 493.44 373.85C494.29 374.396 494.993 375.141 495.49 376.02V376.02C495.56 376.14 495.63 376.25 495.7 376.38C496.574 378.179 497.219 380.081 497.62 382.04C497.74 382.53 497.85 383.04 497.95 383.5C498.19 384.68 498.4 385.86 498.57 387.05C499.009 390.053 499.283 393.077 499.39 396.11C499.58 400.48 499.53 404.89 499.51 409.27C499.51 410.01 499.51 410.74 499.51 411.47C499.517 413.623 499.813 415.766 500.39 417.84C501.94 423.5 502.1 429.43 502.39 435.28C503.056 448.986 504.434 462.648 506.52 476.21C506.91 478.76 507.32 481.3 507.46 483.87C507.615 486.684 507.507 489.506 507.14 492.3V492.3Z" fill="#F86D70"/>
<path opacity="0.7" d="M496.19 418.95C497.301 420.196 498.305 421.534 499.19 422.95C499.6 423.62 499.93 424.6 499.33 425.11C499.009 425.326 498.626 425.431 498.24 425.41L491.08 425.71C490.005 425.831 488.916 425.732 487.88 425.42C486.513 424.749 485.359 423.71 484.55 422.42L481.38 418.28C480.461 417.25 479.779 416.032 479.38 414.71C479.213 414.045 479.264 413.345 479.525 412.711C479.786 412.077 480.243 411.544 480.83 411.19C481.981 410.821 483.23 410.907 484.32 411.43C486.46 412.16 489.02 412.65 490.93 413.89C492.897 415.34 494.665 417.041 496.19 418.95V418.95Z" fill="#F86D70"/>
<path opacity="0.1" d="M496.19 418.95C497.301 420.196 498.305 421.534 499.19 422.95C499.6 423.62 499.93 424.6 499.33 425.11C499.009 425.326 498.626 425.431 498.24 425.41L491.08 425.71C490.005 425.831 488.916 425.732 487.88 425.42C486.513 424.749 485.359 423.71 484.55 422.42L481.38 418.28C480.461 417.25 479.779 416.032 479.38 414.71C479.213 414.045 479.264 413.345 479.525 412.711C479.786 412.077 480.243 411.544 480.83 411.19C481.981 410.821 483.23 410.907 484.32 411.43C486.46 412.16 489.02 412.65 490.93 413.89C492.897 415.34 494.665 417.041 496.19 418.95V418.95Z" fill="black"/>
<path opacity="0.1" d="M492.13 419.43C493.001 414.772 494.198 410.181 495.71 405.69C496.55 403.535 497.154 401.295 497.51 399.01C497.7 397.22 497.51 395.41 497.69 393.61C497.83 392.06 498.21 390.54 498.44 389C498.895 385.875 498.705 382.689 497.88 379.64C497.23 377.21 497.88 374.27 496.3 372.3C495.67 371.5 494.82 370.88 494.17 370.1C493.81 369.737 493.548 369.289 493.406 368.798C493.265 368.307 493.249 367.789 493.36 367.29C495.575 367.798 497.867 367.872 500.11 367.51C500.778 367.435 501.421 367.209 501.99 366.85C502.271 366.667 502.495 366.409 502.637 366.105C502.778 365.801 502.831 365.463 502.79 365.13C502.683 364.812 502.514 364.518 502.292 364.266C502.071 364.014 501.801 363.808 501.5 363.66C499.511 362.434 497.275 361.665 494.952 361.407C492.63 361.149 490.279 361.41 488.07 362.17C487.993 361.991 487.986 361.789 488.048 361.605C488.111 361.42 488.24 361.265 488.41 361.17C488.72 360.996 489.059 360.881 489.41 360.83C490.536 360.576 491.581 360.048 492.454 359.293C493.326 358.537 493.998 357.578 494.41 356.5C494.568 356.191 494.604 355.834 494.51 355.5C494.26 354.75 493.2 354.79 492.43 354.98L488.3 355.98C487.499 356.137 486.722 356.399 485.99 356.76C485.091 357.311 484.29 358.007 483.62 358.82C481.45 361.16 479.24 363.58 478.04 366.54C477.51 367.88 477.19 369.3 476.63 370.63C476.131 371.998 475.169 373.148 473.91 373.88C473.262 374.238 472.742 374.791 472.425 375.46C472.107 376.129 472.008 376.881 472.14 377.61C472.461 379.096 473.106 380.493 474.03 381.7C475.565 384.1 477.301 386.365 479.22 388.47C480.619 389.732 481.819 391.199 482.78 392.82C483.37 394.02 483.62 395.35 484.14 396.58C484.426 397.146 484.644 397.743 484.79 398.36C484.855 398.804 484.855 399.256 484.79 399.7C483.92 406.44 478.92 411.94 477.05 418.48C476.934 418.8 476.892 419.142 476.93 419.48C477.007 419.782 477.142 420.066 477.329 420.314C477.517 420.563 477.751 420.773 478.02 420.93C481.65 423.68 486.09 425.09 490.44 426.46C491.186 424.164 491.751 421.814 492.13 419.43V419.43Z" fill="black"/>
<path opacity="0.7" d="M491.52 419.12C492.393 414.462 493.589 409.871 495.1 405.38C495.947 403.231 496.55 400.993 496.9 398.71C497.09 396.92 496.9 395.1 497.08 393.31C497.22 391.76 497.6 390.24 497.83 388.7C498.289 385.572 498.101 382.383 497.28 379.33C496.62 376.91 497.28 373.96 495.69 371.99C495.06 371.19 494.22 370.58 493.56 369.8C493.198 369.439 492.935 368.991 492.795 368.499C492.655 368.007 492.643 367.488 492.76 366.99C494.972 367.494 497.261 367.566 499.5 367.2C500.168 367.128 500.811 366.906 501.38 366.55C501.66 366.366 501.884 366.108 502.025 365.804C502.166 365.5 502.22 365.163 502.18 364.83C502.076 364.51 501.908 364.215 501.686 363.962C501.464 363.71 501.193 363.505 500.89 363.36C498.903 362.133 496.669 361.362 494.348 361.103C492.028 360.844 489.679 361.102 487.47 361.86C487.385 361.683 487.372 361.48 487.434 361.294C487.495 361.107 487.626 360.952 487.8 360.86C488.111 360.688 488.449 360.573 488.8 360.52C489.927 360.265 490.973 359.736 491.846 358.979C492.718 358.221 493.389 357.26 493.8 356.18C493.951 355.869 493.983 355.513 493.89 355.18C493.64 354.44 492.58 354.48 491.81 354.67L487.68 355.67C486.882 355.838 486.106 356.099 485.37 356.45C484.474 357.004 483.673 357.699 483 358.51C480.83 360.86 478.62 363.27 477.43 366.23C476.89 367.57 476.57 368.99 476.01 370.32C475.516 371.691 474.553 372.842 473.29 373.57C472.642 373.931 472.123 374.486 471.806 375.156C471.488 375.827 471.389 376.58 471.52 377.31C471.841 378.796 472.486 380.192 473.41 381.4C474.947 383.801 476.687 386.065 478.61 388.17C480.003 389.435 481.2 390.901 482.16 392.52C482.75 393.72 483 395.05 483.52 396.27C483.806 396.837 484.027 397.434 484.18 398.05C484.245 398.498 484.245 398.952 484.18 399.4C483.31 406.14 478.32 411.63 476.45 418.17C476.332 418.489 476.287 418.831 476.32 419.17C476.48 419.777 476.871 420.298 477.41 420.62C481.04 423.36 485.48 424.78 489.83 426.15C490.575 423.854 491.141 421.504 491.52 419.12Z" fill="#FBBEBE"/>
<path opacity="0.7" d="M494.27 417.42C494.417 417.488 494.539 417.6 494.62 417.74C494.679 417.915 494.679 418.105 494.62 418.28C493.62 421.283 492.306 424.172 490.7 426.9C487.48 425.133 484.33 423.237 481.25 421.21C480.477 420.785 479.827 420.168 479.36 419.42C474.83 410.67 491.26 415.68 494.27 417.42Z" fill="#3F3D56"/>
<path opacity="0.1" d="M476.17 421.67C475.11 423.09 473.88 424.37 472.83 425.8C471.086 428.455 469.542 431.236 468.21 434.12C466.268 437.822 463.921 441.297 461.21 444.48C458.48 447.69 455.21 450.97 454.92 455.17C454.946 455.77 454.815 456.366 454.54 456.9C454.167 457.28 453.75 457.616 453.3 457.9C452.9 458.27 452.67 458.96 453.07 459.33C451.5 459.49 450.86 461.33 450.56 462.92L449.87 466.47C449.647 467.394 449.533 468.34 449.53 469.29C449.627 470.579 449.938 471.843 450.45 473.03C452.093 477.398 454.234 481.562 456.83 485.44C458.08 487.29 459.52 489.15 461.57 490.03C463.499 490.683 465.553 490.878 467.57 490.6C470.45 490.42 473.81 489.95 475.25 487.44C476.16 485.85 476.02 483.79 477.02 482.24C477.602 481.499 478.237 480.8 478.92 480.15C479.995 478.773 480.793 477.201 481.27 475.52C483.91 467.983 486.022 460.271 487.59 452.44C488.007 449.792 488.708 447.197 489.68 444.7C490.778 442.476 492.066 440.352 493.53 438.35C496.1 434.46 496.53 431.1 498.26 426.79C494.34 425.88 492.53 423.28 489.2 421.08C486.05 419 481.4 414.58 478.08 412.98C477.05 415.71 477.97 419.24 476.17 421.67Z" fill="black"/>
<path opacity="0.1" d="M473.83 419.54C472.77 420.96 471.54 422.25 470.49 423.67C468.746 426.327 467.205 429.111 465.88 432C463.929 435.697 461.582 439.171 458.88 442.36C456.14 445.57 452.88 448.85 452.58 453.05C452.606 453.65 452.475 454.246 452.2 454.78C451.89 455.23 451.36 455.45 450.96 455.78C450.56 456.11 450.33 456.84 450.73 457.21C449.17 457.37 448.52 459.21 448.22 460.79L447.53 464.34C447.313 465.268 447.199 466.217 447.19 467.17C447.287 468.459 447.598 469.723 448.11 470.91C449.765 475.266 451.916 479.416 454.52 483.28C455.77 485.13 457.21 486.98 459.26 487.87C461.19 488.518 463.243 488.713 465.26 488.44C468.14 488.25 471.51 487.79 472.94 485.28C473.86 483.68 473.71 481.63 474.71 480.08C475.29 479.333 475.925 478.631 476.61 477.98C477.685 476.607 478.483 475.038 478.96 473.36C481.599 465.822 483.714 458.11 485.29 450.28C485.698 447.632 486.395 445.036 487.37 442.54C488.468 440.313 489.756 438.185 491.22 436.18C493.79 432.3 493.64 429.99 495.42 425.68C491.5 424.78 490.23 421.12 486.89 418.91C483.74 416.84 479.09 412.41 475.77 410.82C474.66 413.59 475.58 417.12 473.83 419.54Z" fill="black"/>
<path opacity="0.7" d="M475.11 420.6C474.05 422.02 472.82 423.31 471.77 424.73C470.026 427.389 468.482 430.173 467.15 433.06C465.208 436.762 462.861 440.237 460.15 443.42C457.42 446.63 454.15 449.91 453.86 454.11C453.886 454.71 453.755 455.306 453.48 455.84C453.107 456.22 452.69 456.555 452.24 456.84C451.84 457.21 451.6 457.9 452 458.27C450.44 458.43 449.79 460.27 449.49 461.86L448.8 465.41C448.586 466.335 448.475 467.281 448.47 468.23C448.567 469.519 448.878 470.783 449.39 471.97C451.052 476.341 453.213 480.505 455.83 484.38C457.08 486.23 458.52 488.09 460.57 488.97C462.498 489.625 464.553 489.82 466.57 489.54C469.46 489.35 472.82 488.89 474.26 486.38C475.17 484.78 475.03 482.73 476.03 481.18C476.612 480.439 477.247 479.74 477.93 479.09C478.999 477.709 479.797 476.138 480.28 474.46C482.92 466.923 485.032 459.211 486.6 451.38C487.014 448.733 487.711 446.138 488.68 443.64C489.783 441.417 491.074 439.292 492.54 437.29C495.108 433.398 497.298 429.269 499.08 424.96C495.192 423.972 491.511 422.299 488.21 420.02C485.06 417.94 480.41 413.51 477.09 411.92C475.99 414.65 476.91 418.18 475.11 420.6Z" fill="#F86D70"/>
<path opacity="0.7" d="M485.19 425.86C486.361 425.86 487.31 424.911 487.31 423.74C487.31 422.569 486.361 421.62 485.19 421.62C484.019 421.62 483.07 422.569 483.07 423.74C483.07 424.911 484.019 425.86 485.19 425.86Z" fill="#3F3D56"/>
<path opacity="0.7" d="M478.55 436.21C479.721 436.21 480.67 435.261 480.67 434.09C480.67 432.919 479.721 431.97 478.55 431.97C477.379 431.97 476.43 432.919 476.43 434.09C476.43 435.261 477.379 436.21 478.55 436.21Z" fill="#3F3D56"/>
<path opacity="0.7" d="M471.65 446.83C472.821 446.83 473.77 445.881 473.77 444.71C473.77 443.539 472.821 442.59 471.65 442.59C470.479 442.59 469.53 443.539 469.53 444.71C469.53 445.881 470.479 446.83 471.65 446.83Z" fill="#3F3D56"/>
<path opacity="0.7" d="M579.72 492.3H560.18C560.227 491.236 559.932 490.185 559.34 489.3C559.34 489.36 559.34 489.42 559.34 489.48C559.245 490.406 559.265 491.34 559.4 492.26H534.88C534.899 489.437 535.201 486.623 535.78 483.86C536.586 479.409 537.044 474.902 537.15 470.38C537.27 464.8 536.86 459.22 536.83 453.64C536.803 448.109 537.157 442.583 537.89 437.1C538.56 432.1 539.55 426.95 538.73 421.93C537.81 416.32 537.02 410.64 536.31 405C536.31 404.8 536.26 404.6 536.23 404.39C536.12 403.345 535.909 402.314 535.6 401.31C535.31 400.46 534.9 399.66 534.53 398.84C533.872 397.42 533.31 395.956 532.85 394.46C532.009 391.683 531.469 388.823 531.24 385.93C531.1 384.28 528.83 382.8 528.76 381.14C528.755 381.107 528.755 381.073 528.76 381.04C532.01 380.38 537.76 379.57 540.91 380.7C544.06 381.83 546.36 384.59 549.5 385.63C551.387 386.118 553.331 386.357 555.28 386.34C556.551 386.373 557.812 386.575 559.03 386.94C559.68 387.093 560.244 387.495 560.6 388.06C560.64 388.132 560.667 388.209 560.68 388.29C560.767 388.763 560.689 389.251 560.46 389.673C560.231 390.095 559.864 390.426 559.42 390.61C558.663 390.902 557.845 391.001 557.04 390.9V390.9L556.35 390.83C559.397 393.057 562.363 395.39 565.25 397.83L566.19 398.63C567.309 399.486 568.241 400.561 568.93 401.79C569.526 403.282 569.782 404.887 569.68 406.49C569.68 408.35 569.68 410.22 569.68 412.08C569.68 415.67 571.49 418.97 572.12 422.51C572.91 426.97 573.3 431.51 573.67 436C573.88 438.63 574.09 441.26 574.19 443.89C574.4 448.95 575.28 453.99 575.36 459.06C575.36 460.62 575.36 462.18 575.5 463.74C575.64 465.3 575.9 466.74 576.17 468.27C576.76 471.53 577.35 474.8 577.95 478.06C578.126 478.909 578.223 479.773 578.24 480.64V480.64C578.042 481.867 578.008 483.115 578.14 484.35C578.3 484.875 578.5 485.387 578.74 485.88C579.513 487.928 579.847 490.115 579.72 492.3V492.3Z" fill="#F86D70"/>
<path opacity="0.7" d="M510.81 318.47C526.644 318.47 539.48 313.478 539.48 307.32C539.48 301.162 526.644 296.17 510.81 296.17C494.976 296.17 482.14 301.162 482.14 307.32C482.14 313.478 494.976 318.47 510.81 318.47Z" fill="#3F3D56"/>
<path opacity="0.7" d="M539.09 325.27C539.033 324.26 538.796 323.267 538.39 322.34C538.168 321.841 537.886 321.37 537.55 320.94C533.95 316.3 525.44 318 525.44 318C524.773 317.735 524.088 317.517 523.39 317.35C522.164 317.01 520.882 316.918 519.62 317.079C518.358 317.24 517.141 317.652 516.04 318.29C514.409 319.285 513.084 320.711 512.21 322.41C511.97 323.04 511.77 323.685 511.61 324.34C511.472 324.89 511.366 325.448 511.29 326.01C510.29 333.59 515.95 338.2 519.55 340.33C520.899 341.122 522.412 341.594 523.972 341.71C525.532 341.826 527.098 341.583 528.55 341C531.251 339.955 533.633 338.222 535.459 335.973C537.285 333.725 538.492 331.038 538.96 328.18C539.033 327.633 539.073 327.082 539.08 326.53V326.53C539.115 326.111 539.119 325.69 539.09 325.27V325.27ZM535.33 328.36C534.96 330.717 533.988 332.938 532.507 334.809C531.027 336.68 529.089 338.138 526.88 339.04C525.695 339.529 524.412 339.733 523.133 339.636C521.855 339.539 520.617 339.143 519.52 338.48C516.15 336.48 510.59 331.68 513.52 323.56C513.52 323.56 516.52 316.77 524.27 319.88C524.31 319.88 536.71 317.34 535.33 328.36Z" fill="#F86D70"/>
<path opacity="0.7" d="M524.31 319.89C524.31 319.89 536.71 317.34 535.31 328.36C534.94 330.717 533.967 332.939 532.487 334.81C531.007 336.681 529.069 338.138 526.86 339.04C525.866 339.458 524.798 339.672 523.72 339.67C522.232 339.667 520.774 339.259 519.5 338.49C516.13 336.49 510.57 331.68 513.5 323.56C513.56 323.56 516.59 316.79 524.31 319.89Z" fill="#3F3D56"/>
<path opacity="0.1" d="M524.31 319.89C524.31 319.89 536.71 317.34 535.31 328.36C534.94 330.717 533.967 332.939 532.487 334.81C531.007 336.681 529.069 338.138 526.86 339.04C525.866 339.458 524.798 339.672 523.72 339.67C522.232 339.667 520.774 339.259 519.5 338.49C516.13 336.49 510.57 331.68 513.5 323.56C513.56 323.56 516.59 316.79 524.31 319.89Z" fill="url(#paint3_radial)"/>
<path opacity="0.7" d="M507.94 325.99C507.864 325.428 507.758 324.87 507.62 324.32C507.46 323.665 507.26 323.02 507.02 322.39C506.06 320.531 504.561 319.004 502.72 318.01C500.986 317.121 499.016 316.803 497.09 317.1C495.958 317.255 494.849 317.551 493.79 317.98C493.79 317.98 485.28 316.28 481.68 320.92C481.344 321.35 481.062 321.821 480.84 322.32C480.84 322.32 480.84 322.32 480.84 322.32C480.434 323.247 480.197 324.239 480.14 325.25C480.109 325.659 480.109 326.071 480.14 326.48C480.155 328.179 480.494 329.859 481.14 331.43V331.5C481.962 333.593 483.204 335.496 484.79 337.09C485.39 337.708 486.039 338.276 486.73 338.79C487.933 339.681 489.243 340.417 490.63 340.98C492.081 341.565 493.648 341.808 495.208 341.692C496.768 341.576 498.281 341.103 499.63 340.31C503.28 338.18 508.94 333.57 507.94 325.99ZM499.7 338.48C498.603 339.143 497.365 339.539 496.087 339.636C494.808 339.733 493.525 339.529 492.34 339.04C490.131 338.137 488.191 336.68 486.709 334.809C485.227 332.939 484.253 330.717 483.88 328.36C482.51 317.36 494.88 319.88 494.88 319.88C502.6 316.77 505.63 323.56 505.63 323.56C508.63 331.68 503.07 336.44 499.7 338.48Z" fill="#F86D70"/>
<path opacity="0.7" d="M494.91 319.89C494.91 319.89 482.51 317.34 483.91 328.36C484.283 330.717 485.257 332.939 486.739 334.81C488.221 336.68 490.161 338.137 492.37 339.04C493.364 339.458 494.432 339.672 495.51 339.67C496.998 339.667 498.456 339.259 499.73 338.49C503.1 336.49 508.66 331.68 505.73 323.56C505.66 323.56 502.63 316.79 494.91 319.89Z" fill="#3F3D56"/>
<path opacity="0.1" d="M494.91 319.89C494.91 319.89 482.51 317.34 483.91 328.36C484.283 330.717 485.257 332.939 486.739 334.81C488.221 336.68 490.161 338.137 492.37 339.04C493.364 339.458 494.432 339.672 495.51 339.67C496.998 339.667 498.456 339.259 499.73 338.49C503.1 336.49 508.66 331.68 505.73 323.56C505.66 323.56 502.63 316.79 494.91 319.89Z" fill="url(#paint4_radial)"/>
<path opacity="0.7" d="M512.54 324.33H506.72V325.99H512.54V324.33Z" fill="#F86D70"/>
</g>
<path d="M275.37 579.61C273.02 575.05 267.82 572.79 262.97 571.01C258.12 569.23 252.97 567.52 247.87 566.01C254.07 560.45 258.98 553.56 263.44 546.53C265.99 542.53 268.44 538.34 269.66 533.76C270.88 529.18 270.76 524.05 268.34 519.95C265.47 515.08 259.79 512.36 254.13 511.68C248.47 511 242.77 512.05 237.19 513.16C233.19 513.96 229.19 514.793 225.19 515.66C227.53 514.529 229.81 513.277 232.02 511.91C240.26 506.8 247.5 500.26 254.37 493.44C256.54 491.28 258.84 488.74 258.78 485.69C258.72 482.87 256.53 480.4 253.89 479.34C251.178 478.416 248.256 478.301 245.48 479.01C241.721 479.811 238.165 481.369 235.027 483.588C231.89 485.808 229.237 488.643 227.23 491.92C225.85 494.22 224.77 496.77 222.86 498.67C220.59 500.92 217 501.81 214.48 499.51C213.606 498.535 212.97 497.372 212.62 496.11L212.75 495.94C217.75 488.67 218.12 478.81 214.82 470.62C212.31 464.37 207.97 459.1 203.61 453.88C207.513 451.131 211.768 448.918 216.26 447.3C217.501 446.942 218.679 446.392 219.75 445.67C221.88 444.04 222.53 441.12 222.57 438.45C222.61 435.78 222.19 433.15 222.75 430.58C225.436 431.422 228.235 431.85 231.05 431.85C236.338 431.861 241.516 430.336 245.954 427.461C250.392 424.585 253.9 420.482 256.05 415.65C261 414.37 265.83 412.29 269.4 408.65C273.8 404.2 276.51 395.56 271.81 390.35C270.26 388.64 267.91 387.89 266.01 386.66C263.01 384.66 261.01 382.21 258.91 379.34C249.62 366.83 236.31 364.52 221.32 366.19C214.58 366.94 207.82 368.19 201.62 370.93C196.88 373.184 192.371 375.897 188.16 379.03C187.48 379.51 186.79 380.03 186.16 380.5C184.95 376.78 183.33 373.12 182.37 370.18C181.873 368.975 181.664 367.67 181.76 366.37C182.08 364.18 183.96 362.59 185.76 361.21L211.17 341.29C213.842 339.071 216.695 337.081 219.7 335.34C228.46 330.6 239.54 330.03 246.88 323.34C248.994 321.394 250.675 319.025 251.816 316.388C252.956 313.751 253.53 310.903 253.5 308.03C253.42 303.9 251.5 299.27 247.5 298.13C243.3 296.93 239.2 300.02 235.96 302.91C225.33 312.38 214.73 321.97 202.87 329.91C191.65 337.38 179.29 343.35 169.31 352.37C167.488 353.902 165.921 355.715 164.67 357.74C163.443 360.177 162.596 362.787 162.16 365.48L160.09 375.22C158.42 383.06 157.09 392.15 161.84 398.44C161.541 399.035 161.294 399.654 161.1 400.29C160.38 402.72 161.7 405.29 161.1 407.41C160.44 409.79 156.81 412.41 155.19 414.3C152.95 416.9 150.79 419.59 148.73 422.3C140.78 433.089 133.948 444.658 128.34 456.83C119.75 475.09 113.34 494.25 106.88 513.36C105.75 516.74 104.6 520.19 104.57 523.76C104.582 526.998 105.526 530.165 107.29 532.88C105.57 543.01 101.23 552.69 101.08 563.06L99.51 563.77C98.83 573.4 103.51 583 107.51 591.77C109.82 596.77 112.6 602.16 117.74 604.21C120.37 605.21 123.28 605.27 126.11 605.21C129.4 605.21 132.43 605.27 135.42 605.34H135.04C131.44 605.94 127.44 607.34 126.04 610.67C125.458 612.477 125.317 614.397 125.63 616.27C126.79 629.41 127.947 642.55 129.1 655.69C129.35 658.6 129.71 661.74 131.7 663.9C133.52 665.9 136.33 666.58 139 667C144.004 667.768 149.093 667.812 154.11 667.13C156.219 666.983 158.255 666.294 160.02 665.13C161.69 663.86 162.73 661.56 161.91 659.63C160.75 656.88 156.85 656.49 154.91 654.22C152.37 651.29 154.06 646.81 155.83 643.37C156.1 642.84 156.42 642.28 156.75 641.71C158.512 644.351 160.609 646.751 162.99 648.85C164.94 650.56 167.73 651.77 169.99 650.57C175.53 647.683 181.103 644.85 186.71 642.07L188.01 642.25C198.883 643.738 209.858 644.356 220.83 644.1C222.914 644.18 224.991 643.812 226.92 643.02C228.79 642.1 230.29 640.14 230 638.1C229.66 635.63 227.05 634.18 224.69 633.31C220.24 631.688 215.578 630.722 210.85 630.44C216.977 627.52 223.12 624.613 229.28 621.72C235.43 618.82 241.64 615.9 248.28 614.24C256.79 612.11 266.76 611.59 272.28 604.81C275.59 600.71 276.4 595.21 276.75 589.97C276.94 586.45 276.99 582.79 275.37 579.61ZM188.96 524.37C185.96 525.16 182.57 525.99 179.14 527.01C178.82 524.39 178.32 521.78 178 519.17C177.826 518.367 177.899 517.531 178.21 516.77C178.715 516.041 179.43 515.483 180.26 515.17L191.7 509.57C191.706 508.524 191.498 507.487 191.089 506.524C190.68 505.561 190.078 504.692 189.32 503.97C190.429 504.385 191.579 504.68 192.75 504.85C193.908 509.868 196.094 514.59 199.17 518.72C199.833 519.701 200.753 520.479 201.83 520.97L202.01 521.02C197.65 522.1 193.3 523.217 188.96 524.37Z" fill="url(#paint5_linear)"/>
<path d="M199.89 413.23C194.21 414.9 187.89 413.52 182.84 410.5C181.838 409.792 180.717 409.27 179.53 408.96C177.46 408.59 175.41 409.77 173.91 411.25C169.04 416.09 168.48 424.09 171 430.47C173.52 436.85 178.56 441.9 183.86 446.27C188.136 449.794 192.657 453.008 197.39 455.89C198.693 452.835 200.591 450.069 202.972 447.754C205.353 445.438 208.17 443.618 211.26 442.4C216.82 440.25 220.89 434.48 224.08 429.4C226.44 425.67 228.55 425.84 226.42 421.97C224.29 418.1 220.97 415.05 217.99 411.78C216.242 409.947 214.718 407.912 213.45 405.72C212.02 403.17 212.34 401.51 210.15 403.53C208.7 404.88 208.07 407.77 206.45 409.35C204.61 411.156 202.359 412.487 199.89 413.23V413.23Z" fill="#FABDBD"/>
<path d="M182.46 373.66C181.979 372.465 181.777 371.175 181.87 369.89C182.18 367.73 184.02 366.16 185.73 364.8L210.55 345.13C213.16 342.947 215.946 340.983 218.88 339.26C227.44 334.58 238.26 334.02 245.43 327.4C247.5 325.47 249.143 323.129 250.256 320.527C251.368 317.925 251.925 315.12 251.89 312.29C251.81 308.22 249.89 303.65 246.02 302.51C241.92 301.33 237.92 304.39 234.75 307.24C224.37 316.58 214.02 326.05 202.43 333.85C191.43 341.23 179.43 347.12 169.66 356.03C167.879 357.542 166.35 359.327 165.13 361.32C163.931 363.732 163.105 366.311 162.68 368.97L160.68 378.58C158.97 386.68 157.59 396.13 163.05 402.35C163.846 403.345 164.85 404.154 165.992 404.719C167.134 405.284 168.386 405.592 169.66 405.62C171.468 405.412 173.211 404.818 174.77 403.88C178.83 401.79 186.14 399.79 187.38 394.79C188.94 388.4 184.37 379.54 182.46 373.66Z" fill="#FABDBD"/>
<path d="M222.05 500.45C223.91 498.57 224.97 496.06 226.32 493.79C228.265 490.563 230.849 487.767 233.913 485.575C236.978 483.382 240.458 481.839 244.14 481.04C246.85 480.339 249.707 480.458 252.35 481.38C253.66 481.86 254.806 482.705 255.652 483.814C256.499 484.922 257.012 486.25 257.13 487.64C257.18 490.64 254.94 493.16 252.81 495.29C246.11 502.02 239.04 508.48 231 513.52C222.96 518.56 213.83 522.16 204.35 522.79C203.396 522.906 202.427 522.817 201.51 522.53C200.458 522.04 199.559 521.273 198.91 520.31C193.91 513.85 192.13 505.49 190.77 497.42C191.26 500.33 207.6 493.55 209.45 494.42C212.15 495.69 211.89 499.51 213.86 501.33C216.32 503.55 219.83 502.68 222.05 500.45Z" fill="#FABDBD"/>
<path d="M103.03 564.21C102.939 565.225 103.141 566.245 103.61 567.15C104.72 568.9 107.24 568.92 109.29 568.62C114.027 567.812 118.704 566.686 123.29 565.25L164.94 553.25C165.599 553.118 166.215 552.823 166.73 552.39C167.159 551.863 167.442 551.232 167.55 550.56C169.009 544.556 169.321 538.33 168.47 532.21C168.423 531.331 168.132 530.483 167.63 529.76C166.691 528.898 165.455 528.432 164.18 528.46C157.655 527.8 151.098 527.5 144.54 527.56C140.285 527.745 136.023 527.655 131.78 527.29C126.3 526.63 120 523.49 114.51 523.97C109.74 524.38 109.93 528.1 109.44 532.04C108.07 542.9 103.14 553.15 103.03 564.21Z" fill="#FABDBD"/>
<path d="M236.04 514.79C241.49 513.69 247.04 512.64 252.59 513.32C258.14 514 263.66 516.68 266.46 521.49C268.82 525.54 268.95 530.59 267.75 535.12C266.55 539.65 264.16 543.76 261.68 547.73C256.68 555.63 251.19 563.35 243.89 569.15C240.35 571.97 236.43 574.3 233.02 577.28C225.75 583.63 221.25 592.5 216.93 601.13C212.86 609.26 208.75 617.52 207.07 626.45C207.051 626.795 206.963 627.133 206.812 627.444C206.661 627.754 206.45 628.032 206.19 628.26C205.625 628.521 204.984 628.563 204.39 628.38L184.39 624.69C183.483 624.634 182.619 624.283 181.93 623.69C181.08 622.69 181.3 621.25 181.59 619.99C185.922 601.354 194.033 583.805 205.42 568.43C200.125 573.43 193.714 577.094 186.719 579.12C179.725 581.147 172.347 581.475 165.2 580.08C162.41 579.671 159.778 578.533 157.57 576.78C153.11 572.78 153.32 565.78 154.31 559.89C155.202 554.628 156.438 549.43 158.01 544.33C161.83 532.1 177.97 528.79 188.94 525.79C204.52 521.63 220.22 517.963 236.04 514.79Z" fill="#3F3D56"/>
<path opacity="0.1" d="M221.26 557.9C218.49 559.2 215.66 560.61 213.65 562.9C217.25 558.76 227.51 556.83 232.55 554.9C238.78 552.57 245.55 550.21 250.87 546.08C240.726 549.294 230.829 553.245 221.26 557.9Z" fill="black"/>
<path d="M156.53 643.43C154.79 646.82 153.15 651.24 155.63 654.14C157.55 656.38 161.36 656.76 162.5 659.48C163.29 661.38 162.28 663.65 160.65 664.91C158.931 666.063 156.944 666.752 154.88 666.91C149.98 667.582 145.008 667.538 140.12 666.78C137.51 666.37 134.77 665.67 132.99 663.72C131.04 661.59 130.7 658.49 130.45 655.62C129.323 642.653 128.197 629.683 127.07 616.71C126.756 614.859 126.89 612.959 127.46 611.17C128.81 607.87 132.71 606.5 136.23 605.91C140.178 605.251 144.192 605.09 148.18 605.43C150.87 605.66 153.71 606.19 155.7 608.01C157.94 610.01 158.65 613.23 159.23 616.21C160.14 620.83 162.69 627.21 162.15 631.93C161.71 635.71 158.23 640.02 156.53 643.43Z" fill="#467AC7"/>
<path d="M201.33 630.85C208.924 629.852 216.647 630.721 223.83 633.38C226.14 634.24 228.68 635.66 229.02 638.1C229.3 640.1 227.83 642.1 226.02 642.96C224.121 643.746 222.074 644.111 220.02 644.03C209.288 644.321 198.55 643.749 187.91 642.32C185.17 641.95 182.33 641.48 180.09 639.86C177.85 638.24 176.45 635.13 177.64 632.64C178.92 629.98 182.42 629.14 184.1 626.72C185.32 624.97 185.62 622.41 187.53 621.49C188.88 620.84 190.53 621.33 191.89 621.82C193.89 622.53 198.78 623.24 200.19 624.92C200.83 625.63 201.38 630.84 201.33 630.85Z" fill="#467AC7"/>
<path d="M230.05 434.51C244.763 434.51 256.69 422.583 256.69 407.87C256.69 393.157 244.763 381.23 230.05 381.23C215.337 381.23 203.41 393.157 203.41 407.87C203.41 422.583 215.337 434.51 230.05 434.51Z" fill="#FABDBD"/>
<path d="M166.83 396.12C171.12 392.99 176.52 391.92 181.74 390.93C183.53 390.59 185.51 390.28 187.09 391.2C188.216 392.007 189.104 393.102 189.66 394.37C191.288 396.97 192.493 399.812 193.23 402.79C193.79 405.79 193.23 409.17 191.14 411.36C189.56 413 187.29 413.81 185.67 415.36C183.43 417.57 182.78 421.01 183.28 424.11C183.927 427.196 185.126 430.14 186.82 432.8C190.739 439.684 195.2 446.245 200.16 452.42C205.33 458.86 211.16 465.04 214.16 472.71C217.38 480.8 217.05 490.53 212.16 497.71C207.27 504.89 197.42 508.71 189.28 505.65C190.021 506.365 190.61 507.223 191.01 508.172C191.411 509.12 191.615 510.14 191.61 511.17L180.45 516.79C179.639 517.102 178.941 517.653 178.45 518.37C178.148 519.122 178.079 519.948 178.25 520.74C178.8 525.28 179.92 529.81 179.61 534.38C179.3 538.95 177.21 543.76 173.08 545.74C169.27 547.57 164.78 546.6 160.64 545.74C150.963 543.789 141.122 542.761 131.25 542.67C126.35 542.67 121.25 542.79 116.75 540.89C113.714 539.552 111.129 537.366 109.304 534.596C107.479 531.826 106.492 528.588 106.46 525.27C106.46 521.75 107.61 518.35 108.72 515.01C114.99 496.14 121.28 477.22 129.72 459.2C135.19 447.192 141.864 435.77 149.64 425.11C151.64 422.403 153.743 419.76 155.95 417.18C157.52 415.33 161.07 412.73 161.71 410.38C162.29 408.27 161 405.75 161.71 403.38C162.596 400.475 164.39 397.93 166.83 396.12V396.12Z" fill="#467AC7"/>
<path d="M101.5 564.79C113.18 559.4 124.88 554 137.03 549.79C146.03 546.7 155.96 544.3 164.75 547.79C167.37 548.79 169.75 550.37 172.31 551.61C180.82 555.74 190.55 556.34 199.96 557.39C220.891 559.727 241.462 564.596 261.22 571.89C265.96 573.64 271.04 575.89 273.33 580.38C274.91 583.48 274.87 587.13 274.64 590.6C274.29 595.77 273.5 601.21 270.27 605.25C264.92 611.95 255.18 612.45 246.87 614.56C240.42 616.2 234.36 619.08 228.35 621.94C208.9 631.21 189.45 640.48 170.35 650.54C168.1 651.73 165.35 650.54 163.48 648.85C157.64 643.69 153.74 636.59 151.48 629.13C149.22 621.67 148.57 613.82 148.43 606.04C140.97 606.04 134.9 605.7 127.43 605.72C124.67 605.72 121.82 605.72 119.26 604.72C114.26 602.72 111.52 597.36 109.26 592.44C105.38 583.73 100.83 574.25 101.5 564.79Z" fill="#3F3D56"/>
<path opacity="0.1" d="M237.21 592.5C231.94 589.94 225.85 589.87 219.99 589.93C216.419 589.861 212.85 590.128 209.33 590.73C203.83 591.79 198.83 594.44 193.72 596.59C181.274 601.807 167.895 604.434 154.4 604.31" fill="black"/>
<path d="M267.5 411.63C263.7 415.5 258.44 417.63 253.15 418.83C247.86 420.03 242.42 420.52 237.15 421.69C230.62 423.13 223.46 426.59 221.99 433.12C221.41 435.69 221.83 438.37 221.79 441.01C221.75 443.65 221.12 446.52 219.04 448.14C217.994 448.848 216.843 449.388 215.63 449.74C194.3 457.47 178.99 479.47 179.17 502.16C175.826 500.217 172.963 497.545 170.795 494.341C168.627 491.138 167.21 487.487 166.65 483.66C166.65 490.72 160.65 497.95 164 504.16C160.226 501.713 157.004 498.506 154.54 494.744C152.075 490.981 150.423 486.746 149.688 482.309C148.953 477.872 149.151 473.33 150.271 468.974C151.391 464.618 153.407 460.543 156.19 457.01C158.88 453.59 162.19 450.76 165.09 447.49C169.056 442.893 172.033 437.528 173.834 431.73C175.635 425.932 176.223 419.825 175.56 413.79C174.98 408.65 173.48 403.45 174.56 398.41C176.13 391.41 182.28 386.53 188.13 382.41C192.235 379.315 196.636 376.636 201.27 374.41C207.33 371.71 213.93 370.41 220.51 369.72C235.15 368.07 248.15 370.35 257.22 382.72C259.3 385.56 261.22 388.01 264.16 389.95C266.01 391.16 268.31 391.95 269.82 393.59C274.45 398.7 271.83 407.24 267.5 411.63Z" fill="#3F3D56"/>
<defs>
<linearGradient id="paint0_linear" x1="493" y1="633.99" x2="493" y2="14.99" gradientUnits="userSpaceOnUse">
<stop stop-color="#808080" stop-opacity="0.25"/>
<stop offset="0.54" stop-color="#808080" stop-opacity="0.12"/>
<stop offset="1" stop-color="#808080" stop-opacity="0.1"/>
</linearGradient>
<linearGradient id="paint1_linear" x1="-5513.35" y1="2310.77" x2="-5477.35" y2="2310.77" gradientUnits="userSpaceOnUse">
<stop stop-color="#808080" stop-opacity="0.25"/>
<stop offset="0.54" stop-color="#808080" stop-opacity="0.12"/>
<stop offset="1" stop-color="#808080" stop-opacity="0.1"/>
</linearGradient>
<linearGradient id="paint2_linear" x1="84543.8" y1="135110" x2="84543.8" y2="92273.3" gradientUnits="userSpaceOnUse">
<stop stop-color="#808080" stop-opacity="0.25"/>
<stop offset="0.54" stop-color="#808080" stop-opacity="0.12"/>
<stop offset="1" stop-color="#808080" stop-opacity="0.1"/>
</linearGradient>
<radialGradient id="paint3_radial" cx="0" cy="0" r="1" gradientUnits="userSpaceOnUse" gradientTransform="translate(524.08 329.37) scale(10.84)">
<stop stop-color="white"/>
<stop offset="1"/>
</radialGradient>
<radialGradient id="paint4_radial" cx="0" cy="0" r="1" gradientUnits="userSpaceOnUse" gradientTransform="translate(-96015.7 10380.2) rotate(180) scale(246.665 223.223)">
<stop stop-color="white"/>
<stop offset="1"/>
</radialGradient>
<linearGradient id="paint5_linear" x1="34609" y1="237679" x2="66092.1" y2="237679" gradientUnits="userSpaceOnUse">
<stop stop-color="#808080" stop-opacity="0.25"/>
<stop offset="0.54" stop-color="#808080" stop-opacity="0.12"/>
<stop offset="1" stop-color="#808080" stop-opacity="0.1"/>
</linearGradient>
</defs>
</svg>
